<svg xmlns="http://www.w3.org/2000/svg" xmlns:xlink="http://www.w3.org/1999/xlink" preserveAspectRatio="xMidYMid" width="120" height="120" viewBox="0 0 120 120">
  <defs>
    <style>
      .cls-1 {
        fill: #31a0ce;
        filter: url(#color-overlay-1);
        fill-rule: evenodd;
      }
    </style>

    <filter id="color-overlay-1" filterUnits="userSpaceOnUse">
      <feFlood flood-color="#fff"/>
      <feComposite operator="in" in2="SourceGraphic"/>
      <feBlend in2="SourceGraphic" result="solidFill"/>
    </filter>
  </defs>
  <path d="M30.000,60.000 C13.431,60.000 0.000,46.569 0.000,30.000 C0.000,13.431 13.431,0.000 30.000,0.000 C46.569,0.000 60.000,13.431 60.000,30.000 C60.000,46.569 46.569,60.000 30.000,60.000 ZM20.000,16.000 C17.791,16.000 16.000,17.791 16.000,20.000 C16.000,22.209 17.791,24.000 20.000,24.000 C22.209,24.000 24.000,22.209 24.000,20.000 C24.000,17.791 22.209,16.000 20.000,16.000 ZM40.000,16.000 C37.791,16.000 36.000,17.791 36.000,20.000 C36.000,22.209 37.791,24.000 40.000,24.000 C42.209,24.000 44.000,22.209 44.000,20.000 C44.000,17.791 42.209,16.000 40.000,16.000 ZM45.667,32.832 C42.121,44.068 30.500,42.937 30.500,42.937 L30.500,42.990 C30.500,42.990 18.879,44.111 15.333,32.972 C15.333,32.972 12.306,28.851 11.000,32.972 C11.000,32.972 15.328,49.000 30.500,49.000 C45.672,49.000 50.000,32.832 50.000,32.832 C48.694,28.674 45.667,32.832 45.667,32.832 Z" transform="translate(30 30)" class="cls-1"/>
</svg>
