<svg xmlns="http://www.w3.org/2000/svg" xmlns:xlink="http://www.w3.org/1999/xlink" preserveAspectRatio="xMidYMid" width="120" height="120" viewBox="0 0 120 120">
  <defs>
    <style>
      .cls-1 {
        fill: #31a0ce;
        filter: url(#color-overlay-1);
        fill-rule: evenodd;
      }
    </style>

    <filter id="color-overlay-1" filterUnits="userSpaceOnUse">
      <feFlood flood-color="#fff"/>
      <feComposite operator="in" in2="SourceGraphic"/>
      <feBlend in2="SourceGraphic" result="solidFill"/>
    </filter>
  </defs>
  <path d="M57.742,28.247 C58.542,30.348 59.000,32.618 59.000,35.000 C59.000,45.493 50.493,54.000 40.000,54.000 C36.002,54.000 32.307,52.749 29.250,50.639 C26.674,52.132 23.691,53.000 20.500,53.000 C19.128,53.000 17.799,52.826 16.518,52.527 L0.000,60.000 L9.332,48.971 C5.465,45.761 3.000,40.919 3.000,35.500 C3.000,34.526 3.100,33.577 3.253,32.646 C1.221,30.150 0.000,26.969 0.000,23.500 C0.000,15.492 6.492,9.000 14.500,9.000 C15.684,9.000 16.829,9.158 17.931,9.425 C19.990,3.924 25.280,0.000 31.500,0.000 C36.407,0.000 40.737,2.444 43.361,6.175 C44.061,6.071 44.771,6.000 45.500,6.000 C53.508,6.000 60.000,12.492 60.000,20.500 C60.000,23.352 59.165,26.004 57.742,28.247 Z" transform="translate(30 30)" class="cls-1"/>
</svg>
