<svg xmlns="http://www.w3.org/2000/svg" xmlns:xlink="http://www.w3.org/1999/xlink" preserveAspectRatio="xMidYMid" width="120" height="120" viewBox="0 0 118.006 118.006">
  <defs>
    <style>
      .cls-1 {
        fill: #31a0ce;
        filter: url(#color-overlay-1);
        fill-rule: evenodd;
      }
    </style>

    <filter id="color-overlay-1" filterUnits="userSpaceOnUse">
      <feFlood flood-color="#fff"/>
      <feComposite operator="in" in2="SourceGraphic"/>
      <feBlend in2="SourceGraphic" result="solidFill"/>
    </filter>
  </defs>
  <path d="M44.000,37.500 C44.000,49.374 34.150,59.000 22.000,59.000 C9.850,59.000 0.000,49.374 0.000,37.500 C0.000,37.331 0.022,37.168 0.026,37.000 L0.000,37.000 C0.539,16.425 22.000,-0.000 22.000,-0.000 C22.000,-0.000 43.461,16.425 44.000,37.000 L43.974,37.000 C43.978,37.168 44.000,37.331 44.000,37.500 ZM39.000,34.500 C39.000,33.119 37.881,32.000 36.500,32.000 C35.119,32.000 34.000,33.119 34.000,34.500 C34.000,34.671 34.018,34.838 34.050,35.000 L34.000,35.000 C34.000,35.000 34.144,43.751 25.000,47.000 L25.010,47.049 C23.864,47.277 23.000,48.287 23.000,49.500 C23.000,50.881 24.119,52.000 25.500,52.000 C25.668,52.000 25.832,51.982 25.990,51.951 L26.000,52.000 C26.000,52.000 37.298,49.791 39.000,35.000 L38.950,35.000 C38.982,34.838 39.000,34.671 39.000,34.500 Z" transform="translate(37 29.5)" class="cls-1"/>
</svg>
